<mxfile host="app.diagrams.net" modified="2023-09-13T02:18:00.873Z" agent="Mozilla/5.0 (Windows NT 10.0; Win64; x64) AppleWebKit/537.36 (KHTML, like Gecko) Chrome/116.0.0.0 Safari/537.36 Edg/116.0.1938.76" version="21.7.4" etag="uApwnjf8-goXlhSGBYsO" type="github">
  <diagram name="第 1 页" id="i2w11jRK-SJ9q0cYc7nX">
    <mxGraphModel>
      <root>
        <mxCell id="0" />
        <mxCell id="1" parent="0" />
      </root>
    </mxGraphModel>
  </diagram>
</mxfile>
